<?xml version="1.0" standalone="no"?>
<!DOCTYPE svg PUBLIC "-//W3C//DTD SVG 20010904//EN"
 "http://www.w3.org/TR/2001/REC-SVG-20010904/DTD/svg10.dtd">
<svg version="1.0" xmlns="http://www.w3.org/2000/svg"
 width="300.000000pt" height="300.000000pt" viewBox="0 0 300.000000 300.000000"
 preserveAspectRatio="xMidYMid meet">

<g transform="translate(0.000000,300.000000) scale(0.100000,-0.100000)"
fill="#00FF00" stroke="none">
<path d="M2210 2290 c-13 -8 -15 -115 -18 -842 -2 -458 0 -866 3 -905 6 -64
11 -78 43 -118 61 -74 106 -98 189 -103 67 -4 76 -2 120 26 59 37 67 45 103
102 l30 45 0 542 c0 298 -3 548 -6 557 -4 11 -19 16 -45 16 -33 0 -41 -4 -49
-26 -6 -15 -10 -232 -10 -546 l0 -521 -44 -43 c-36 -37 -50 -44 -83 -44 -33 0
-45 7 -80 43 l-41 42 -5 865 c-3 593 -8 874 -16 893 -8 22 -17 27 -43 27 -18
0 -40 -5 -48 -10z"/>
<path d="M717 2102 c-17 -19 -22 -57 -11 -86 6 -14 65 -16 574 -16 629 0 594
-4 588 66 -2 31 -8 40 -28 45 -14 4 -268 7 -566 8 -512 1 -542 0 -557 -17z"/>
<path d="M711 1726 c-7 -8 -11 -32 -9 -52 2 -31 8 -40 28 -45 14 -4 264 -7
555 -7 292 0 541 3 555 7 20 5 26 14 28 45 6 70 40 66 -583 66 -476 0 -564 -2
-574 -14z"/>
<path d="M785 1360 c-11 -4 -36 -24 -55 -45 l-35 -36 -3 -197 c-4 -223 2 -256
53 -301 l36 -31 195 0 195 0 39 42 40 41 0 228 0 228 -25 19 c-14 11 -25 24
-25 29 0 25 -57 33 -223 32 -95 0 -181 -4 -192 -9z m335 -130 c6 -9 9 -89 7
-185 l-2 -170 -140 -2 c-77 -2 -146 1 -154 6 -21 13 -20 340 1 355 9 7 67 11
147 11 106 0 134 -3 141 -15z"/>
<path d="M1500 1302 c-37 -6 -50 -21 -50 -57 0 -54 16 -60 185 -63 169 -4 229
6 238 39 7 25 -8 68 -25 74 -17 6 -316 12 -348 7z"/>
<path d="M1466 914 c-9 -8 -16 -27 -16 -42 0 -56 4 -57 203 -60 206 -4 217 0
217 62 0 54 -7 56 -206 56 -153 0 -185 -3 -198 -16z"/>
</g>
</svg>
